<svg xmlns="http://www.w3.org/2000/svg" viewBox="0 0 512 512" role="img" aria-labelledby="title desc">
  <title id="title">ClipFlip Studio logo</title>
  <desc id="desc">A compact ClipFlip Studio app icon with interlocking clip frames and a play mark.</desc>
  <defs>
    <linearGradient id="bg" x1="76" y1="64" x2="434" y2="448" gradientUnits="userSpaceOnUse">
      <stop offset="0" stop-color="#0f766e"/>
      <stop offset="0.52" stop-color="#2563eb"/>
      <stop offset="1" stop-color="#d97706"/>
    </linearGradient>
    <linearGradient id="shine" x1="128" y1="96" x2="384" y2="416" gradientUnits="userSpaceOnUse">
      <stop offset="0" stop-color="#ffffff" stop-opacity="0.92"/>
      <stop offset="1" stop-color="#ffffff" stop-opacity="0.72"/>
    </linearGradient>
  </defs>
  <rect width="512" height="512" rx="112" fill="#101827"/>
  <path d="M112 208c0-54 43-98 97-98h118c13 0 24 11 24 24s-11 24-24 24H209c-27 0-49 22-49 50s22 50 49 50h42c13 0 24 11 24 24s-11 24-24 24h-42c-54 0-97-44-97-98Z" fill="url(#shine)"/>
  <path d="M400 304c0 54-43 98-97 98H185c-13 0-24-11-24-24s11-24 24-24h118c27 0 49-22 49-50s-22-50-49-50h-42c-13 0-24-11-24-24s11-24 24-24h42c54 0 97 44 97 98Z" fill="url(#shine)"/>
  <path d="M211 177v158c0 20 22 32 39 21l119-79c15-10 15-32 0-42l-119-79c-17-11-39 1-39 21Z" fill="url(#bg)"/>
  <path d="M94 133h48v34H94v-34Zm276 0h48v34h-48v-34ZM94 345h48v34H94v-34Zm276 0h48v34h-48v-34Z" fill="#dbeafe" opacity="0.78"/>
</svg>
